#!OML:ASF H:\charlestonDancing\Project 1\Capture day 1\Session 1\femaleDancer.ASF
:FULLY-SPECIFIED
:DEGREES
379
root -13.8923 17.9635 2.79449 130.894 -84.9644 -121.779
lowerback 14.0724 -0.6188 -0.886863
upperback 0.818297 -1.11849 -1.31119
thorax -7.04325 -0.563232 -0.663179
lowerneck 8.65218 -18.1626 -9.49658
upperneck -14.2113 -24.3078 14.6519
head -2.62874 -12.6696 6.39875
rclavicle -1.15295e-014 6.36111e-015
rhumerus -34.4362 5.2165 -85.595
rradius 22.9264
rwrist 43.4819
rhand -34.398 -34.3394
rfingers 7.12502
rthumb -7.56376 -64.1841
lclavicle -1.15295e-014 6.36111e-015
lhumerus -39.4141 11.0487 69.1656
lradius 56.4364
lwrist -6.49482
lhand -31.5169 11.0851
lfingers 7.12502
lthumb -4.78226 41.0111
rfemur -18.55 4.44615 22.4299
rtibia 33.9058
rfoot -25.4713 -6.74921
rtoes -18.6155
lfemur -23.7129 2.09761 -19.2964
ltibia 35.2129
lfoot -14.8722 -2.27929
ltoes -16.391
380
root -13.8854 17.9138 2.73137 138.678 -85.6333 -130.466
lowerback 13.7499 -0.884778 -1.28326
upperback 0.701231 -1.5412 -1.50217
thorax -6.98614 -0.758982 -0.562059
lowerneck 8.73678 -17.9426 -9.42401
upperneck -13.5617 -24.0603 14.0675
head -2.56383 -12.4972 6.21369
rclavicle -4.77083e-015 1.74931e-014
rhumerus -36.2302 0.169303 -82.9535
rradius 20.5302
rwrist 46.1877
rhand -33.4758 -34.809
rfingers 7.12502
rthumb -6.67356 -64.6839
lclavicle -4.77083e-015 1.74931e-014
lhumerus -36.2987 9.35734 69.806
lradius 57.1508
lwrist -8.20271
lhand -31.9879 10.287
lfingers 7.12502
lthumb -5.23705 40.2023
rfemur -18.3184 4.2459 21.7835
rtibia 33.9401
rfoot -24.3626 -6.92148
rtoes -16.7391
lfemur -22.8341 2.70264 -20.1755
ltibia 35.4202
lfoot -15.0563 -3.04766
ltoes -14.598
381
root -13.8721 17.8625 2.66513 149.84 -86.2736 -142.687
lowerback 13.6896 -1.17467 -1.77806
upperback 0.596483 -2.0229 -1.74257
thorax -7.05804 -0.981491 -0.443912
lowerneck 8.66316 -17.7393 -9.29871
upperneck -12.6817 -23.8372 13.3105
head -2.42956 -12.326 5.94321
rclavicle 1.70955e-014 1.59028e-014
rhumerus -38.1525 -4.88998 -79.7341
rradius 18.3715
rwrist 49.0427
rhand -32.5693 -35.3688
rfingers 7.12502
rthumb -5.79842 -65.2694
lclavicle 1.70955e-014 1.59028e-014
lhumerus -33.391 7.63198 70.1415
lradius 57.7891
lwrist -10.1937
lhand -31.9892 9.3055
lfingers 7.12502
lthumb -5.23833 39.2208
rfemur -18.0216 3.71655 21.0715
rtibia 34.4209
rfoot -21.7889 -6.71734
rtoes -12.2292
lfemur -21.7739 3.24908 -21.1182
ltibia 35.5239
lfoot -15.0712 -3.73811
ltoes -14.0251
382
root -13.8558 17.8038 2.60327 166.82 -86.9126 -160.873
lowerback 13.8126 -1.52047 -2.31128
upperback 0.527833 -2.59912 -2.04253
thorax -7.19078 -1.2499 -0.344665
lowerneck 8.70039 -17.5004 -9.20863
upperneck -12.0151 -23.5699 12.5698
head -2.37215 -12.139 5.71055
rclavicle 2.96189e-014 7.15625e-015
rhumerus -40.2612 -10.1031 -75.696
rradius 16.3672
rwrist 52.6399
rhand -31.9172 -35.5747
rfingers 7.12502
rthumb -5.16883 -65.4916
lclavicle 2.96189e-014 7.15625e-015
lhumerus -30.5816 5.83512 70.3005
lradius 58.3202
lwrist -12.1842
lhand -31.6625 8.62754
lfingers 7.12502
lthumb -4.92288 38.5504
rfemur -17.0992 2.94911 20.1128
rtibia 35.1684
rfoot -21.5213 -6.69973
rtoes -12.0745
lfemur -20.4975 3.47443 -22.228
ltibia 35.5063
lfoot -15.0213 -4.20139
ltoes -14.4902
383
root -13.8451 17.7645 2.53898 193.327 -87.1748 -188.794
lowerback 14.0209 -1.8446 -3.10319
upperback 0.584278 -3.19672 -2.35996
thorax -7.21996 -1.52381 -0.112099
lowerneck 8.696 -17.2619 -9.06223
upperneck -11.4535 -23.2994 11.7214
head -2.35751 -11.9486 5.44731
rclavicle 3.39922e-014 -1.11319e-014
rhumerus -42.6945 -16.0401 -70.2956
rradius 14.6037
rwrist 58.0233
rhand -30.9896 -35.0576
rfingers 7.12502
rthumb -4.27311 -64.9945
lclavicle 3.39922e-014 -1.11319e-014
lhumerus -27.8564 3.92221 70.4087
lradius 58.8334
lwrist -13.6446
lhand -31.4827 8.02592
lfingers 7.12502
lthumb -4.74929 37.9527
rfemur -15.951 2.49608 18.8571
rtibia 35.9384
rfoot -21.7764 -6.77509
rtoes -13.3348
lfemur -18.8823 3.36419 -23.492
ltibia 35.3658
lfoot -15.0305 -4.41934
ltoes -14.8272
384
root -13.8406 17.7376 2.47489 213.876 -86.7858 -210.83
lowerback 14.2586 -2.13859 -3.76114
upperback 0.687575 -3.73012 -2.59979
thorax -7.20997 -1.77079 0.115656
lowerneck 8.50028 -17.0208 -8.7876
upperneck -10.7259 -23.0188 10.608
head -2.30826 -11.7428 5.07075
rclavicle 9.34288e-015 6.36111e-015
rhumerus -45.6346 -22.1771 -63.6788
rradius 12.8284
rwrist 64.4601
rhand -30.1884 -34.4568
rfingers 7.12502
rthumb -3.49938 -64.4078
lclavicle 9.34288e-015 6.36111e-015
lhumerus -25.5509 2.02731 70.44
lradius 59.4242
lwrist -14.6401
lhand -31.7533 7.19965
lfingers 7.12502
lthumb -5.01054 37.1204
rfemur -14.6027 2.49441 17.7934
rtibia 36.4027
rfoot -21.6007 -7.36103
rtoes -17.9161
lfemur -17.1742 3.11787 -24.4785
ltibia 35.2575
lfoot -15.1597 -4.52401
ltoes -14.0929
385
root -13.8329 17.7216 2.4168 218.669 -86.4522 -216.871
lowerback 14.4389 -2.53554 -3.76035
upperback 0.700984 -4.26867 -2.61884
thorax -7.28508 -2.03164 0.210161
lowerneck 8.32464 -16.6469 -8.68682
upperneck -9.97525 -22.5664 9.64643
head -2.22679 -11.4608 4.75586
rclavicle -2.18663e-015 1.19271e-014
rhumerus -49.2093 -28.2462 -55.7568
rradius 11.1509
rwrist 73.2809
rhand -30.0006 -33.8349
rfingers 7.12502
rthumb -3.31802 -63.7888
lclavicle -2.18663e-015 1.19271e-014
lhumerus -23.8266 0.39604 70.2591
lradius 59.9542
lwrist -15.6235
lhand -32.3086 6.22765
lfingers 7.12502
lthumb -5.54665 36.1351
rfemur -13.3506 2.80093 17.5586
rtibia 36.551
rfoot -21.5744 -7.49512
rtoes -16.8313
lfemur -15.6834 2.75423 -24.6878
ltibia 35.0031
lfoot -15.2637 -4.33349
ltoes -13.0633
